# xmcd
#
# Track frame offsets:
#	150
#	10845
#	25043
#	35324
#	54613
#	70420
#	85838
#	97373
#	108968
#	118725
#	130593
#	143735
#	158476
#	169984
#
# Disc length: 3376 seconds
#
# Revision: 2
# Processed by: cddbd v1.5.2PL0 Copyright (c) Steve Scherf et al.
# Submitted via: EasyCDDAExtractor 11.1.0.1
#
DISCID=b40d2e0e
DTITLE=David 'Honeyboy' Edwards - Crawling Kingsnake
DYEAR=1997
DGENRE=Blues
TTITLE0=Just Like Jesse James
TTITLE1=Sweet Home Chicago
TTITLE2=Blues Like Showers Of Rain
TTITLE3=Long Tall Woman Blues
TTITLE4=Love Me Over Slow
TTITLE5=Crawling Kingsnake
TTITLE6=Skin And Bones Blues
TTITLE7=Bull Cow Blues
TTITLE8=Blue And Lonesome
TTITLE9=My Baby's Gone
TTITLE10=Ida Lou Blues
TTITLE11=Angel Child
TTITLE12=Love Me Over Slow
TTITLE13=Honeyboy speaks with Pete Welding about Robert Johnson And Tommy John
TTITLE13=son
EXTD=
EXTT0=
EXTT1=
EXTT2=
EXTT3=
EXTT4=
EXTT5=
EXTT6=
EXTT7=
EXTT8=
EXTT9=
EXTT10=
EXTT11=
EXTT12=
EXTT13=
PLAYORDER=
